<svg width="32" height="6" viewBox="0 0 32 6" fill="none" xmlns="http://www.w3.org/2000/svg">
<g clip-path="url(#clip0_1_442)">
<g clip-path="url(#clip1_1_442)">
<mask id="mask0_1_442" style="mask-type:luminance" maskUnits="userSpaceOnUse" x="0" y="0" width="32" height="6">
<path d="M31.8921 0.119385H0V5.61192H31.8921V0.119385Z" fill="white"/>
</mask>
<g mask="url(#mask0_1_442)">
<path d="M0.0200195 4.44907L0.176219 4.1785L1.14838 2.34797L1.25184 2.14305C1.28194 2.08286 1.32378 1.99659 1.37795 1.88367C1.59835 1.88625 1.75942 1.88739 1.86088 1.88739C2.03742 1.88739 2.20108 1.88625 2.35125 1.88367L2.62555 2.66724L3.18328 4.17449L3.29217 4.44878C3.07522 4.44647 2.94337 4.44503 2.89724 4.44503C2.79178 4.44503 2.63701 4.4462 2.43264 4.44878C2.37762 4.24214 2.29824 3.99909 2.19449 3.71966H1.24812C1.13921 3.94005 1.02657 4.18309 0.910211 4.44878C0.676917 4.44647 0.5339 4.44503 0.481167 4.44503C0.385726 4.44503 0.232106 4.4462 0.0203062 4.44878M1.4754 3.17282H2.05921C1.91419 2.73143 1.8348 2.48811 1.82105 2.44312C1.7385 2.62684 1.66828 2.77757 1.61067 2.89511L1.4754 3.17282Z" fill="#009CA8"/>
<path d="M3.49736 4.44908L3.53461 3.96786L3.58304 3.02838L3.6037 2.36318C3.60482 2.29182 3.60568 2.22045 3.60568 2.1488C3.60568 2.09492 3.60513 2.00665 3.6037 1.88369C3.76905 1.88742 3.90204 1.88943 4.00236 1.88943C4.10266 1.88943 4.23106 1.88656 4.39902 1.88111C4.56695 1.87538 4.70913 1.8728 4.82576 1.8728C4.99372 1.8728 5.11811 1.88341 5.19892 1.90461C5.27976 1.92612 5.35283 1.95936 5.41788 2.00521C5.48296 2.05107 5.53683 2.10438 5.57953 2.166C5.62223 2.22734 5.65406 2.29726 5.67555 2.37552C5.69676 2.45376 5.70736 2.53372 5.70736 2.61512C5.70736 2.78305 5.66667 2.93639 5.58526 3.0754C5.50388 3.21441 5.38923 3.31843 5.24133 3.38723C5.09346 3.45629 4.92752 3.49068 4.74323 3.49068C4.67558 3.49068 4.59734 3.48323 4.5082 3.46804C4.49817 3.41044 4.47926 3.32474 4.45175 3.21066C4.42423 3.0966 4.4016 3.01204 4.38411 2.95702C4.43914 2.96822 4.49674 2.97393 4.55694 2.97393C4.6836 2.97393 4.77791 2.94355 4.8398 2.8828C4.90173 2.82205 4.93296 2.7478 4.93296 2.66009C4.93296 2.61739 4.92609 2.57957 4.91231 2.54632C4.89858 2.51308 4.87649 2.48583 4.84668 2.46463C4.81659 2.44342 4.78335 2.42967 4.74696 2.42336C4.71054 2.41706 4.66927 2.41391 4.62285 2.41391C4.57643 2.41391 4.53084 2.41505 4.48183 2.41763L4.32391 2.42881C4.30786 2.67072 4.29526 2.93926 4.28666 3.23502C4.27061 3.77383 4.26259 4.09715 4.26259 4.20462V4.4488L3.88828 4.44507C3.83555 4.44507 3.70514 4.44622 3.49707 4.4488" fill="#009CA8"/>
<path d="M5.95341 4.44908L5.99067 3.96786L6.0391 3.02838L6.05975 2.36318C6.06087 2.29182 6.06176 2.22045 6.06176 2.1488C6.06176 2.09492 6.06118 2.00665 6.05975 1.88369C6.2251 1.88742 6.35809 1.88943 6.45839 1.88943C6.55871 1.88943 6.68712 1.88656 6.85507 1.88111C7.02302 1.87538 7.16516 1.8728 7.28182 1.8728C7.44977 1.8728 7.57416 1.88341 7.65498 1.90461C7.73581 1.92612 7.80889 1.95936 7.87394 2.00521C7.93901 2.05107 7.99289 2.10438 8.03558 2.166C8.07828 2.22734 8.11012 2.29726 8.13161 2.37552C8.15281 2.45376 8.16339 2.53372 8.16339 2.61512C8.16339 2.78305 8.1227 2.93639 8.04134 3.0754C7.95993 3.21441 7.84528 3.31843 7.69739 3.38723C7.54952 3.45629 7.38357 3.49068 7.19926 3.49068C7.13163 3.49068 7.0534 3.48323 6.96425 3.46804C6.95422 3.41044 6.93531 3.32474 6.9078 3.21066C6.88029 3.0966 6.85765 3.01204 6.84017 2.95702C6.89519 2.96822 6.95279 2.97393 7.01299 2.97393C7.13939 2.97393 7.23396 2.94355 7.29586 2.8828C7.35778 2.82205 7.38902 2.7478 7.38902 2.66009C7.38902 2.61739 7.38214 2.57957 7.36836 2.54632C7.35463 2.51308 7.33254 2.48583 7.30274 2.46463C7.27265 2.44342 7.23941 2.42967 7.20301 2.42336C7.16659 2.41706 7.12533 2.41391 7.0789 2.41391C7.03248 2.41391 6.98689 2.41505 6.93789 2.41763L6.77997 2.42881C6.76392 2.67072 6.75131 2.93926 6.74271 3.23502C6.72667 3.77383 6.71864 4.09715 6.71864 4.20462V4.4488L6.34434 4.44507C6.29161 4.44507 6.1612 4.44622 5.95312 4.4488" fill="#009CA8"/>
<path d="M8.37921 4.40989C8.36287 4.14308 8.34396 3.92956 8.32275 3.76903C8.46317 3.83182 8.58843 3.87509 8.6982 3.89973C8.80796 3.92409 8.90427 3.93641 8.98709 3.93641C9.09629 3.93641 9.18312 3.92037 9.24791 3.88856C9.31268 3.85646 9.3448 3.80918 9.3448 3.74668C9.3448 3.72548 9.34164 3.70513 9.33532 3.68564C9.32901 3.66616 9.31726 3.64438 9.29949 3.61971C9.28201 3.59535 9.2568 3.5687 9.2241 3.53976L8.87017 3.23165C8.78733 3.16144 8.72944 3.11072 8.69677 3.07948C8.63029 3.01555 8.5784 2.95623 8.54143 2.90093C8.50446 2.84588 8.47724 2.78972 8.46031 2.73269C8.4434 2.67566 8.43483 2.6152 8.43483 2.55127C8.43483 2.47504 8.44827 2.39994 8.47523 2.32686C8.50217 2.25347 8.54257 2.18498 8.59645 2.12107C8.65032 2.05716 8.7217 2.00213 8.81085 1.95571C8.89969 1.90927 8.99485 1.87774 9.09658 1.86084C9.19803 1.84393 9.30265 1.83533 9.41042 1.83533C9.62222 1.83533 9.85264 1.85969 10.102 1.9087C10.1057 1.99497 10.11 2.07435 10.1152 2.1463C10.1203 2.21823 10.1321 2.34461 10.151 2.5249C10.0358 2.47848 9.93059 2.44636 9.83516 2.42802C9.74 2.40997 9.65775 2.4008 9.58897 2.4008C9.49123 2.4008 9.41013 2.41914 9.34563 2.45524C9.28115 2.49166 9.24877 2.53665 9.24877 2.59053C9.24877 2.61546 9.25393 2.6401 9.26367 2.66391C9.2737 2.6877 9.29262 2.71549 9.32013 2.74759C9.34764 2.7794 9.38406 2.81465 9.42902 2.85276C9.47404 2.8909 9.54482 2.94764 9.64142 3.02274L9.7767 3.12992C9.8168 3.16259 9.86009 3.20187 9.90623 3.24827C9.95268 3.29472 9.9928 3.34028 10.0266 3.38558C10.0604 3.43055 10.0865 3.47213 10.1046 3.50967C10.1226 3.54721 10.1361 3.58503 10.145 3.62346C10.1536 3.66157 10.1582 3.70255 10.1582 3.74668C10.1582 3.85933 10.1312 3.96681 10.0773 4.06883C10.0235 4.17087 9.94692 4.25484 9.84806 4.32075C9.74919 4.3864 9.64027 4.43253 9.52189 4.4589C9.40354 4.48526 9.27857 4.49844 9.14702 4.49844C8.9441 4.49844 8.68789 4.46893 8.37835 4.41018" fill="#009CA8"/>
<path d="M13.0552 3.82351C13.0402 3.89715 13.0219 4.00006 13.0007 4.13161C12.9792 4.26343 12.9649 4.36545 12.9574 4.43798C12.6894 4.47812 12.4498 4.49816 12.2395 4.49816C12.0291 4.49816 11.8477 4.47265 11.6729 4.42193C11.498 4.37121 11.3378 4.28779 11.1916 4.17202C11.0458 4.05622 10.9414 3.91979 10.8787 3.76333C10.8159 3.60684 10.7847 3.43143 10.7847 3.23709C10.7847 3.0104 10.8271 2.80634 10.9116 2.62549C10.9962 2.44438 11.1177 2.29361 11.2762 2.17266C11.4347 2.05172 11.6084 1.96545 11.7978 1.91329C11.987 1.86141 12.1824 1.83533 12.3842 1.83533C12.5696 1.83533 12.7989 1.85912 13.072 1.9067L13.0758 2.06462C13.0784 2.13368 13.0821 2.20934 13.0869 2.29189L13.1001 2.50628C12.9534 2.47129 12.8347 2.44722 12.7439 2.4349C12.653 2.42229 12.5688 2.41627 12.4911 2.41627C12.322 2.41627 12.1698 2.45009 12.0346 2.51774C11.8993 2.58537 11.7926 2.68369 11.715 2.81264C11.6373 2.94162 11.5983 3.08464 11.5983 3.24113C11.5983 3.38386 11.631 3.50652 11.6961 3.60856C11.7611 3.71057 11.8494 3.78969 11.96 3.84529C12.0709 3.90117 12.2077 3.92896 12.3707 3.92896C12.4596 3.92896 12.5564 3.9218 12.6611 3.90747C12.7657 3.89314 12.8969 3.86506 13.0549 3.82379" fill="#00263A"/>
<path d="M13.9575 4.44907C13.9701 4.3476 13.985 4.17535 14.0028 3.93232C14.0203 3.68926 14.0291 3.51761 14.0291 3.41728L13.1685 1.88367C13.3576 1.88625 13.5132 1.88739 13.6359 1.88739C13.7586 1.88739 13.8944 1.88625 14.0584 1.88367C14.1085 2.00891 14.1764 2.15823 14.2621 2.33164C14.3478 2.50502 14.4178 2.66008 14.4716 2.79679C14.6158 2.54256 14.7316 2.34424 14.8193 2.20208C14.907 2.05993 14.9695 1.95389 15.007 1.88367C15.1664 1.88625 15.3194 1.88739 15.4662 1.88739C15.5438 1.88739 15.6851 1.88625 15.8895 1.88367L15.0643 3.09943C14.9001 3.34247 14.8182 3.46973 14.8182 3.4809L14.8161 3.49984V3.51844L14.8141 3.53738L14.801 3.82311C14.7924 4.01229 14.7855 4.22094 14.7803 4.44907C14.6035 4.44647 14.4671 4.44534 14.3705 4.44534C14.2739 4.44534 14.1334 4.44647 13.9569 4.44907" fill="#00263A"/>
<path d="M18.1185 3.82351C18.1035 3.89715 18.0854 4.00006 18.0641 4.13161C18.0427 4.26343 18.0283 4.36545 18.0209 4.43798C17.7527 4.47812 17.5136 4.49816 17.3029 4.49816C17.0923 4.49816 16.9112 4.47265 16.7363 4.42193C16.5615 4.37121 16.4013 4.28779 16.2551 4.17202C16.1092 4.05622 16.0049 3.91979 15.9421 3.76333C15.8794 3.60684 15.8481 3.43143 15.8481 3.23709C15.8481 3.0104 15.8906 2.80634 15.9751 2.62549C16.0597 2.44438 16.1812 2.29361 16.3397 2.17266C16.4981 2.05172 16.6721 1.96545 16.8613 1.91329C17.0504 1.86141 17.2459 1.83533 17.4477 1.83533C17.6331 1.83533 17.8623 1.85912 18.1355 1.9067L18.1393 2.06462C18.1418 2.13368 18.1455 2.20934 18.1504 2.29189L18.1635 2.50628C18.0168 2.47129 17.8981 2.44722 17.8074 2.4349C17.7165 2.42229 17.6322 2.41627 17.5546 2.41627C17.3855 2.41627 17.2333 2.45009 17.098 2.51774C16.9627 2.58537 16.8561 2.68369 16.7785 2.81264C16.7008 2.94162 16.6618 3.08464 16.6618 3.24113C16.6618 3.38386 16.6942 3.50652 16.7595 3.60856C16.8246 3.71057 16.9126 3.78969 17.0235 3.84529C17.1344 3.90117 17.2714 3.92896 17.4342 3.92896C17.523 3.92896 17.6199 3.9218 17.7245 3.90747C17.8292 3.89314 17.9603 3.86506 18.1184 3.82379" fill="#00263A"/>
<path d="M18.4585 4.44914C18.49 4.15336 18.5127 3.91233 18.5264 3.72575C18.5528 3.38498 18.5726 3.04621 18.5857 2.71004C18.599 2.37356 18.6056 2.09841 18.6056 1.88403C18.7758 1.88661 18.9264 1.88776 19.0581 1.88776C19.1469 1.88776 19.2748 1.88661 19.4413 1.88403L19.396 2.56444L19.3394 3.6283L19.332 3.88941C19.5476 3.89313 19.6879 3.89514 19.7532 3.89514C20.0827 3.89514 20.3323 3.89084 20.5014 3.88196L20.4601 4.44943C20.1305 4.44685 19.8168 4.44571 19.5186 4.44571C19.1151 4.44571 18.7617 4.44685 18.4589 4.44943" fill="#00263A"/>
<path d="M26.5078 4.44909L26.5455 4.05447L26.6189 2.71629L26.6394 2.17691V1.88371C26.834 1.88629 27.0057 1.88744 27.1552 1.88744C27.262 1.88744 27.4119 1.88629 27.6054 1.88371L28.4075 3.34254L28.5181 3.55689C28.5322 3.34626 28.5467 3.05134 28.5613 2.6713C28.5763 2.29154 28.5833 2.02902 28.5833 1.88342C28.7373 1.886 28.8608 1.88715 28.9532 1.88715C28.9959 1.88715 29.1182 1.886 29.3212 1.88342L29.2761 2.44343L29.1918 3.99942L29.1805 4.44854C29.0174 4.44594 28.8653 4.44479 28.7235 4.44479C28.606 4.44479 28.4426 4.44594 28.2346 4.44854C28.1697 4.32584 28.1214 4.23675 28.0904 4.1817L27.7749 3.64575C27.6713 3.47035 27.5755 3.30239 27.4876 3.14189C27.4301 3.04045 27.3709 2.92897 27.3095 2.80716L27.2691 3.69819L27.25 4.44826C27.0946 4.44565 26.9766 4.44451 26.8952 4.44451C26.8264 4.44451 26.6974 4.44565 26.5085 4.44826" fill="#00263A"/>
<path d="M29.6631 4.44907C29.6946 4.12577 29.7175 3.85521 29.7319 3.6371C29.7462 3.419 29.7608 3.12924 29.7751 2.76783C29.7894 2.40642 29.7968 2.16683 29.7968 2.04904L29.7949 1.88367C30.0903 1.88625 30.448 1.88739 30.8679 1.88739C31.2552 1.88739 31.5965 1.88625 31.8919 1.88367L31.8883 1.94557C31.8871 1.96048 31.884 2.01493 31.8787 2.10866L31.8677 2.31272C31.8651 2.35657 31.8637 2.40071 31.8637 2.4457C31.622 2.43565 31.419 2.43078 31.2547 2.43078C31.0747 2.43078 30.9526 2.43078 30.8896 2.43166C30.8261 2.43223 30.7274 2.4351 30.5935 2.44026L30.5703 2.87245C30.7184 2.87617 30.8905 2.87818 31.0873 2.87818C31.1578 2.87818 31.3443 2.8739 31.6478 2.865C31.6351 3.0255 31.6234 3.21638 31.612 3.4382C31.3954 3.43562 31.2287 3.43448 31.1124 3.43448C30.9395 3.43448 30.7461 3.43878 30.5319 3.44766L30.5097 3.9045H30.7253C30.7893 3.9045 30.9216 3.90251 31.122 3.89879L31.5107 3.88933C31.5685 3.88816 31.6645 3.883 31.7999 3.87414C31.7851 4.05958 31.7725 4.25129 31.7624 4.44907C31.4565 4.44647 31.1215 4.44534 30.7571 4.44534L29.9303 4.44706L29.6633 4.44907H29.6631Z" fill="#00263A"/>
<path d="M0.776984 1.1096L0.540821 0.31571L0.303515 1.1096L0 0.150051H0.0530218L0.300934 0.924168L0.540821 0.132568L0.779563 0.924168L1.02747 0.150051H1.08308L0.776984 1.1096Z" fill="#00263A"/>
<path d="M1.85727 1.09639V0.603145H1.33623V1.09639H1.2832V0.150024H1.33623V0.548977H1.85727V0.150024H1.91143V1.09639H1.85727Z" fill="#00263A"/>
<path d="M2.09473 1.09639V0.150024H2.54927V0.204193H2.14889V0.548977H2.54927V0.607159H2.14889V1.04194H2.54927V1.09639H2.09473Z" fill="#00263A"/>
<path d="M3.18452 1.09643L2.8836 0.622963H2.78155V1.09643H2.72852V0.14978H2.94721C2.98246 0.14978 3.01599 0.154939 3.04811 0.16497C3.07992 0.175002 3.10714 0.190191 3.13035 0.209967C3.15328 0.229743 3.17162 0.25439 3.18538 0.283625C3.19913 0.312857 3.20603 0.34639 3.20603 0.384222C3.20603 0.425781 3.1997 0.461607 3.18681 0.491699C3.17391 0.521793 3.15586 0.54644 3.13236 0.565929C3.10886 0.585418 3.08135 0.599749 3.04952 0.608919C3.01771 0.618091 2.98275 0.622963 2.94492 0.622963L3.24844 1.09643H3.18483H3.18452ZM3.13408 0.30426C3.12348 0.281619 3.10886 0.263276 3.09021 0.248659C3.07161 0.234042 3.05012 0.223151 3.02518 0.215413C3.00052 0.207961 2.97386 0.204235 2.94578 0.204235H2.78127V0.568795H2.96011C3.01656 0.568795 3.06241 0.553031 3.0974 0.520933C3.13236 0.48912 3.14984 0.443264 3.14984 0.383075C3.14984 0.352983 3.1444 0.326614 3.13379 0.30426" fill="#00263A"/>
<path d="M3.42969 1.09639V0.150024H3.88425V0.204193H3.48387V0.548977H3.88425V0.607159H3.48387V1.04194H3.88425V1.09639H3.42969Z" fill="#00263A"/>
<path d="M5.255 1.04083C5.2054 1.07695 5.13834 1.09901 5.05352 1.10704C5.04375 1.1079 5.03315 1.10847 5.02168 1.10905C5.01022 1.10933 4.99819 1.10962 4.98586 1.10962C4.84256 1.10962 4.72592 1.06462 4.63592 0.97434C4.54477 0.883199 4.49951 0.766266 4.49951 0.622963C4.49951 0.47966 4.54448 0.363013 4.63477 0.273019C4.72561 0.18188 4.84284 0.136597 4.98615 0.136597C5.06754 0.136597 5.14092 0.148634 5.20626 0.172422C5.24525 0.187326 5.2828 0.209108 5.3189 0.237195V0.304833C5.28165 0.273881 5.24122 0.249232 5.1968 0.230603C5.12974 0.203089 5.05954 0.189619 4.98615 0.189619C4.86061 0.189619 4.75716 0.230316 4.67604 0.311713C4.59465 0.393108 4.55396 0.496859 4.55396 0.62325C4.55396 0.749642 4.59408 0.853105 4.6746 0.933356C4.75601 1.01475 4.85975 1.05545 4.98615 1.05545C5.06498 1.05545 5.13347 1.04141 5.19164 1.01303C5.22517 0.996124 5.26758 0.969182 5.3189 0.93221V0.994688L5.25528 1.04112L5.255 1.04083Z" fill="#00263A"/>
<path d="M6.20687 0.973194C6.11572 1.06433 5.9988 1.10962 5.85552 1.10962C5.71221 1.10962 5.59555 1.06462 5.50557 0.97434C5.41442 0.883199 5.36914 0.766266 5.36914 0.622963C5.36914 0.47966 5.41413 0.363013 5.5044 0.273019C5.59555 0.18188 5.7125 0.136597 5.85578 0.136597C5.99909 0.136597 6.11517 0.181594 6.20716 0.271873C6.29831 0.363013 6.34359 0.479949 6.34359 0.62325C6.34359 0.766552 6.298 0.8832 6.20716 0.973194M6.16876 0.311713C6.08735 0.230316 5.98304 0.189619 5.85578 0.189619C5.72854 0.189619 5.62679 0.230316 5.54567 0.311713C5.46428 0.393108 5.42359 0.496859 5.42359 0.62325C5.42359 0.749642 5.46371 0.853105 5.54426 0.933356C5.62564 1.01475 5.72938 1.05545 5.85578 1.05545C5.98218 1.05545 6.08735 1.01561 6.16876 0.936222C6.24928 0.855687 6.28943 0.751648 6.28943 0.62325C6.28943 0.494853 6.24928 0.392248 6.16876 0.311713Z" fill="#00263A"/>
<path d="M7.3273 0.973194C7.23615 1.06433 7.11923 1.10962 6.97592 1.10962C6.83261 1.10962 6.71627 1.06462 6.62597 0.97434C6.53482 0.883199 6.48926 0.766266 6.48926 0.622963C6.48926 0.47966 6.53427 0.363013 6.62454 0.273019C6.71567 0.18188 6.83261 0.136597 6.97592 0.136597C7.11923 0.136597 7.23529 0.181594 7.3273 0.271873C7.41843 0.363013 7.46373 0.479949 7.46373 0.62325C7.46373 0.766552 7.41817 0.8832 7.3273 0.973194ZM7.28888 0.311713C7.20749 0.230316 7.10316 0.189619 6.97592 0.189619C6.84866 0.189619 6.74693 0.230316 6.66583 0.311713C6.58442 0.393108 6.54373 0.496859 6.54373 0.62325C6.54373 0.749642 6.58385 0.853105 6.66437 0.933356C6.74578 1.01475 6.84954 1.05545 6.97592 1.05545C7.10232 1.05545 7.20749 1.01561 7.28888 0.936222C7.36942 0.855687 7.40954 0.751648 7.40954 0.62325C7.40954 0.494853 7.36942 0.392248 7.28888 0.311713Z" fill="#00263A"/>
<path d="M7.67969 1.09639V0.150024H7.73273V1.04194H7.99926V1.09639H7.67969Z" fill="#00263A"/>
<path d="M8.67704 0.14978H8.62402V1.09643H8.67704V0.14978Z" fill="#00263A"/>
<path d="M9.48694 0.953418C9.40728 1.04886 9.30352 1.09672 9.17542 1.09672H8.85986V0.14978H9.17542C9.30266 0.14978 9.40613 0.197357 9.48551 0.293081C9.56062 0.382216 9.59816 0.491985 9.59816 0.621817C9.59816 0.751648 9.56117 0.863137 9.48666 0.953131M9.44682 0.330056C9.37776 0.24522 9.28718 0.202802 9.17511 0.202802H8.91259V1.04198H9.17511C9.27228 1.04198 9.35684 1.00587 9.4282 0.933356C9.505 0.855687 9.54342 0.751648 9.54342 0.621817C9.54342 0.506029 9.51104 0.408871 9.44654 0.330056" fill="#00263A"/>
<path d="M9.7666 1.09639V0.150024H10.2215V0.204193H9.82107V0.548977H10.2215V0.607159H9.82107V1.04194H10.2215V1.09639H9.7666Z" fill="#00263A"/>
<path d="M11.0672 1.09642L10.9586 0.812679H10.5278L10.4178 1.09642H10.3647L10.7425 0.119385L11.1217 1.09642H11.0672ZM10.7425 0.25724L10.549 0.758224H10.9362L10.7428 0.25724H10.7425Z" fill="#00263A"/>
<path d="M11.6401 1.08844C11.6057 1.10076 11.565 1.10707 11.518 1.10707C11.373 1.10707 11.2798 1.03857 11.2383 0.901574L11.2927 0.882945C11.3237 0.996154 11.3988 1.05261 11.518 1.05261C11.5859 1.05261 11.6395 1.03599 11.6785 1.00217C11.7183 0.967781 11.7381 0.917338 11.7381 0.851134C11.7381 0.788366 11.7146 0.736204 11.6679 0.694647C11.6556 0.683182 11.6364 0.670286 11.6109 0.656242C11.5853 0.642198 11.5524 0.626148 11.5128 0.608665C11.4378 0.575134 11.3864 0.545899 11.3589 0.521252C11.3131 0.481412 11.2899 0.428963 11.2899 0.363619C11.2899 0.298274 11.3134 0.245539 11.3601 0.2057C11.4059 0.165002 11.4627 0.144653 11.5297 0.144653C11.641 0.144653 11.7198 0.186211 11.7656 0.269326L11.7141 0.291967C11.6963 0.262735 11.6751 0.24124 11.6504 0.226909C11.6195 0.20742 11.5793 0.197675 11.5297 0.197675C11.4776 0.197675 11.4343 0.212292 11.3999 0.241527C11.363 0.272478 11.3443 0.313176 11.3443 0.363619C11.3443 0.408614 11.3638 0.448168 11.4028 0.481699C11.4249 0.499468 11.469 0.523256 11.5352 0.55335C11.5768 0.571979 11.6126 0.590322 11.6427 0.608378C11.6728 0.626434 11.6971 0.644777 11.7155 0.663406C11.7668 0.713849 11.7923 0.776614 11.7923 0.851705C11.7923 0.971793 11.7415 1.0509 11.6398 1.08901" fill="#00263A"/>
<path d="M13.0441 0.953418C12.9647 1.04886 12.8607 1.09672 12.7326 1.09672H12.417V0.14978H12.7326C12.8598 0.14978 12.9633 0.197357 13.0426 0.293081C13.1177 0.382216 13.1553 0.491985 13.1553 0.621817C13.1553 0.751648 13.1183 0.863137 13.0438 0.953131M13.004 0.330056C12.9352 0.24522 12.8443 0.202802 12.7323 0.202802H12.4697V1.04198H12.7323C12.8294 1.04198 12.914 1.00587 12.9853 0.933356C13.0622 0.855687 13.1006 0.751648 13.1006 0.621817C13.1006 0.506029 13.0685 0.408871 13.0037 0.330056" fill="#00263A"/>
<path d="M13.9412 1.09642L13.8326 0.812679H13.4019L13.2918 1.09642H13.2388L13.6165 0.119385L13.9957 1.09642H13.9412ZM13.6165 0.25724L13.4231 0.758224H13.8103L13.6168 0.25724H13.6165Z" fill="#00263A"/>
<path d="M14.1956 0.293082V1.09643H14.1426V0.143188L14.8493 0.971762V0.14978H14.9038V1.11248L14.1956 0.293082Z" fill="#00263A"/>
<path d="M15.8771 1.04083C15.8275 1.07695 15.7604 1.09901 15.6756 1.10704C15.6658 1.1079 15.6552 1.10847 15.6438 1.10905C15.6323 1.10933 15.6203 1.10962 15.608 1.10962C15.4647 1.10962 15.348 1.06462 15.258 0.97434C15.1669 0.883199 15.1216 0.766266 15.1216 0.622963C15.1216 0.47966 15.1666 0.363013 15.2569 0.273019C15.3477 0.18188 15.4649 0.136597 15.6082 0.136597C15.6896 0.136597 15.763 0.148634 15.8284 0.172422C15.8673 0.187326 15.9049 0.209108 15.941 0.237195V0.304833C15.904 0.273881 15.8633 0.249232 15.8189 0.230603C15.7518 0.203089 15.6813 0.189619 15.6082 0.189619C15.4827 0.189619 15.3792 0.230316 15.2981 0.311713C15.2167 0.393108 15.176 0.496859 15.176 0.62325C15.176 0.749642 15.2162 0.853105 15.2967 0.933356C15.3781 1.01475 15.4818 1.05545 15.6082 1.05545C15.6868 1.05545 15.7553 1.04141 15.8137 1.01303C15.8473 0.996124 15.8897 0.969182 15.941 0.93221V0.994688L15.8774 1.04112L15.8771 1.04083Z" fill="#00263A"/>
<path d="M16.085 1.09639V0.150024H16.5398V0.204193H16.1394V0.548977H16.5398V0.607159H16.1394V1.04194H16.5398V1.09639H16.085Z" fill="#00263A"/>
<path d="M24.4691 0.135132H22.1169C21.2902 0.135132 20.6201 0.805212 20.6201 1.63178V3.30181L21.41 3.92921L23.7262 3.5374V1.88026L23.556 1.91638L21.8912 2.27205L21.9803 3.25224L23.1743 3.00806L23.2929 2.69135L22.2119 3.00806L22.3187 2.69967L23.477 2.39674L23.3882 3.30554L21.4277 3.39466L21.4814 1.73753L24.1364 1.30992L24.4216 4.30351H21.3209L20.6201 3.62912V3.98394C20.6201 4.81078 21.2902 5.48087 22.1169 5.48087H24.4691C25.2961 5.48087 25.9657 4.81078 25.9657 3.98394V1.63178C25.9657 0.805212 25.2961 0.135132 24.4691 0.135132Z" fill="url(#paint0_linear_1_442)"/>
</g>
</g>
</g>
<defs>
<linearGradient id="paint0_linear_1_442" x1="20.6201" y1="2.80799" x2="25.9657" y2="2.80799" gradientUnits="userSpaceOnUse">
<stop stop-color="#015A7C"/>
<stop offset="0.84" stop-color="#00B0AD"/>
<stop offset="1" stop-color="#00B0AD"/>
</linearGradient>
<clipPath id="clip0_1_442">
<rect width="32" height="5.73" fill="white"/>
</clipPath>
<clipPath id="clip1_1_442">
<rect width="32" height="5.73134" fill="white"/>
</clipPath>
</defs>
</svg>
